<svg xmlns="http://www.w3.org/2000/svg" viewBox="0 0 64 64" fill="none">
  <rect width="64" height="64" rx="14" fill="#1f2937"/>
  <rect x="4" y="4" width="56" height="56" rx="10" fill="#111827"/>
  <path d="M18 14h28a2 2 0 012 2v32a2 2 0 01-2 2H18a2 2 0 01-2-2V16a2 2 0 012-2z" fill="#374151" stroke="#4b5563" stroke-width="1"/>
  <path d="M22 22h20" stroke="#f97316" stroke-width="2.5" stroke-linecap="round"/>
  <path d="M22 28h16" stroke="#9ca3af" stroke-width="1.5" stroke-linecap="round"/>
  <path d="M22 33h12" stroke="#9ca3af" stroke-width="1.5" stroke-linecap="round"/>
  <path d="M22 38h14" stroke="#9ca3af" stroke-width="1.5" stroke-linecap="round"/>
  <path d="M22 44h8" stroke="#6b7280" stroke-width="1.5" stroke-linecap="round"/>
  <circle cx="42" cy="44" r="4" fill="#f97316"/>
  <path d="M40.5 44l1.2 1.2 2.5-2.5" stroke="white" stroke-width="1.2" stroke-linecap="round" stroke-linejoin="round"/>
</svg>
